<svg width="758" height="575" viewBox="0 0 758 575" fill="none" xmlns="http://www.w3.org/2000/svg">
<mask id="mask0_5_2" style="mask-type:luminance" maskUnits="userSpaceOnUse" x="54" y="54" width="704" height="296">
    <path d="M54.3044 54.3027H758V349.583H54.3044V54.3027Z" fill="white"/>
</mask>
<g mask="url(#mask0_5_2)">
<mask id="mask1_5_2" style="mask-type:luminance" maskUnits="userSpaceOnUse" x="-68" y="-138" width="866" height="836">
<path d="M-67.8807 1.50826L665.742 -137.559L797.694 558.549L64.071 697.616L-67.8807 1.50826Z" fill="white"/>
</mask>
<g mask="url(#mask1_5_2)">
<mask id="mask2_5_2" style="mask-type:luminance" maskUnits="userSpaceOnUse" x="-68" y="-138" width="866" height="836">
<path d="M-67.8807 1.50923L665.742 -137.558L797.694 558.55L64.071 697.617L-67.8807 1.50923Z" fill="white"/>
</mask>
<g mask="url(#mask2_5_2)">
<mask id="mask3_5_2" style="mask-type:luminance" maskUnits="userSpaceOnUse" x="-68" y="-138" width="866" height="836">
<path d="M-67.8807 1.51021L665.742 -137.557L797.694 558.551L64.071 697.618L-67.8807 1.51021Z" fill="white"/>
</mask>
<g mask="url(#mask3_5_2)">
<path d="M752.547 348.943C752.228 348.329 642.983 153.442 431.059 256.407C214.381 361.755 55.1396 58.6385 54.7109 57.7767L59.6031 55.0986C60.0362 55.9604 216.78 354.361 428.642 251.409C645.268 146.136 757.036 345.531 757.35 346.15L752.547 348.943Z" fill="#7C52CC"/>
</g>
</g>
</g>
</g>
<mask id="mask4_5_2" style="mask-type:luminance" maskUnits="userSpaceOnUse" x="75" y="171" width="683" height="185">
<path d="M75.7999 171.968H758V355.245H75.7999V171.968Z" fill="white"/>
</mask>
<g mask="url(#mask4_5_2)">
<mask id="mask5_5_2" style="mask-type:luminance" maskUnits="userSpaceOnUse" x="-68" y="-138" width="866" height="836">
<path d="M-67.8806 1.5103L665.743 -137.557L797.694 558.551L64.0712 697.618L-67.8806 1.5103Z" fill="white"/>
</mask>
<g mask="url(#mask5_5_2)">
<mask id="mask6_5_2" style="mask-type:luminance" maskUnits="userSpaceOnUse" x="-68" y="-138" width="866" height="836">
<path d="M-67.8806 1.51225L665.743 -137.555L797.694 558.553L64.0712 697.62L-67.8806 1.51225Z" fill="white"/>
</mask>
<g mask="url(#mask6_5_2)">
<mask id="mask7_5_2" style="mask-type:luminance" maskUnits="userSpaceOnUse" x="-68" y="-138" width="866" height="836">
<path d="M-67.8806 1.51335L665.743 -137.553L797.694 558.554L64.0712 697.621L-67.8806 1.51335Z" fill="white"/>
</mask>
<g mask="url(#mask7_5_2)">
<path d="M752.622 348.999C752.317 348.451 645.856 167.184 442.086 312.129C233.326 460.644 77.3733 175.568 76.874 174.715L81.6954 171.984C82.1771 172.77 235.178 452.477 438.882 307.546C647.526 159.119 757.037 345.535 757.337 346.087L752.622 348.999Z" fill="#7C52CC"/>
</g>
</g>
</g>
</g>
<mask id="mask8_5_2" style="mask-type:luminance" maskUnits="userSpaceOnUse" x="98" y="272" width="660" height="166">
<path d="M98.4268 272.652H758V437.828H98.4268V272.652Z" fill="white"/>
</mask>
<g mask="url(#mask8_5_2)">
<mask id="mask9_5_2" style="mask-type:luminance" maskUnits="userSpaceOnUse" x="-68" y="-138" width="866" height="836">
<path d="M-67.8807 1.50923L665.742 -137.558L797.694 558.55L64.071 697.617L-67.8807 1.50923Z" fill="white"/>
</mask>
<g mask="url(#mask9_5_2)">
<mask id="mask10_5_2" style="mask-type:luminance" maskUnits="userSpaceOnUse" x="-68" y="-138" width="866" height="836">
<path d="M-67.8808 1.51118L665.742 -137.556L797.694 558.552L64.071 697.619L-67.8808 1.51118Z" fill="white"/>
</mask>
<g mask="url(#mask10_5_2)">
<mask id="mask11_5_2" style="mask-type:luminance" maskUnits="userSpaceOnUse" x="-68" y="-138" width="866" height="836">
<path d="M-67.8808 1.51228L665.742 -137.555L797.694 558.553L64.071 697.62L-67.8808 1.51228Z" fill="white"/>
</mask>
<g mask="url(#mask11_5_2)">
<path d="M752.622 348.999C752.33 348.517 648.648 180.871 452.975 367.803C252.32 559.451 99.5271 292.441 99.1205 291.707L103.849 288.857C104.265 289.652 253.575 550.59 449.134 363.746C649.722 172.107 756.97 345.547 757.262 346.034L752.622 348.999Z" fill="#7C52CC"/>
</g>
</g>
</g>
</g>
<mask id="mask12_5_2" style="mask-type:luminance" maskUnits="userSpaceOnUse" x="121" y="291" width="637" height="234">
<path d="M121.054 291.888H758V524.945H121.054V291.888Z" fill="white"/>
</mask>
<g mask="url(#mask12_5_2)">
<mask id="mask13_5_2" style="mask-type:luminance" maskUnits="userSpaceOnUse" x="-68" y="-138" width="866" height="836">
<path d="M-67.8807 1.50899L665.742 -137.558L797.694 558.55L64.071 697.617L-67.8807 1.50899Z" fill="white"/>
</mask>
<g mask="url(#mask13_5_2)">
<mask id="mask14_5_2" style="mask-type:luminance" maskUnits="userSpaceOnUse" x="-68" y="-138" width="866" height="836">
<path d="M-67.8807 1.50996L665.742 -137.557L797.694 558.551L64.071 697.618L-67.8807 1.50996Z" fill="white"/>
</mask>
<g mask="url(#mask14_5_2)">
<mask id="mask15_5_2" style="mask-type:luminance" maskUnits="userSpaceOnUse" x="-68" y="-138" width="866" height="836">
<path d="M-67.8807 1.51094L665.742 -137.556L797.694 558.552L64.071 697.619L-67.8807 1.51094Z" fill="white"/>
</mask>
<g mask="url(#mask15_5_2)">
<path d="M752.697 349.05C752.352 348.643 651.495 194.48 463.793 423.489C271.266 658.335 121.69 409.378 121.283 408.644L125.999 405.732C126.405 406.461 271.973 648.701 459.506 419.856C651.932 185.164 756.957 345.483 757.249 345.97L752.697 349.05Z" fill="#7C52CC"/>
</g>
</g>
</g>
</g>
<mask id="mask16_5_2" style="mask-type:luminance" maskUnits="userSpaceOnUse" x="0" y="0" width="161" height="441">
<path d="M0 0H160.651V440.093H0V0Z" fill="white"/>
</mask>
<g mask="url(#mask16_5_2)">
<mask id="mask17_5_2" style="mask-type:luminance" maskUnits="userSpaceOnUse" x="-68" y="-138" width="866" height="836">
<path d="M-67.8806 1.50826L665.743 -137.559L797.694 558.549L64.0712 697.616L-67.8806 1.50826Z" fill="white"/>
</mask>
<g mask="url(#mask17_5_2)">
<mask id="mask18_5_2" style="mask-type:luminance" maskUnits="userSpaceOnUse" x="-68" y="-138" width="866" height="836">
<path d="M-67.8805 1.50923L665.743 -137.558L797.695 558.55L64.0713 697.617L-67.8805 1.50923Z" fill="white"/>
</mask>
<g mask="url(#mask18_5_2)">
<mask id="mask19_5_2" style="mask-type:luminance" maskUnits="userSpaceOnUse" x="-68" y="-138" width="866" height="836">
<path d="M-67.8804 1.51021L665.743 -137.557L797.695 558.551L64.0713 697.618L-67.8804 1.51021Z" fill="white"/>
</mask>
<g mask="url(#mask19_5_2)">
<path fill-rule="evenodd" clip-rule="evenodd" d="M121.111 316.234C120.722 313.481 118.928 307.89 118.044 304.62L100.716 242.418C140.468 239.599 150.619 306.869 121.111 316.234ZM108.362 321.82C80.9574 332.068 52.9655 323.022 35.3501 299.414C24.9073 285.157 24.4477 270.419 26.1801 253.515C31.5319 225.081 50.9238 202.472 69.9357 182.09L70.3908 183.084L74.2224 197.319C75.6763 202.163 76.9933 207.704 78.3544 212.433C63.4039 218.704 52.581 237.597 49.2533 253.122C47.0746 263.101 48.3164 274.927 52.3512 283.191C57.7649 294.155 65.6047 302.441 76.3039 306.812L78.624 307.784L84.1482 309.499L85.253 309.698C90.5164 310.719 93.7027 307.824 92.2046 303.798C90.4678 298.87 82.2523 300.899 74.9781 290.69C63.2581 271.082 69.7324 256.312 87.551 245.123C88.13 246.762 88.4128 248.26 88.8636 249.927C91.4533 258.995 108.49 320.379 108.362 321.82ZM68.2121 125.488C59.7094 105.605 61.8881 49.2059 84.3205 41.9229C84.3868 41.9096 84.4354 41.8345 84.568 41.808C95.4307 38.604 96.6813 52.2464 97.2293 59.6885C98.9617 83.2788 82.4865 107.894 68.2121 125.488ZM140.079 398.34C140.309 394.995 140.393 388.039 139.646 384.813L125.257 329.664C157.005 313.14 165.768 285.471 156.006 248.044C154.557 244.274 153.505 241.172 151.516 237.712C138.126 214.241 119.454 203.701 93.1061 207.55L91.4975 207.519L90.3484 203.219L85.2618 185.184C84.1305 180.614 82.1374 176.075 81.3242 171.444C81.1784 170.662 133.061 113.264 118.712 48.8126C109.882 16.6621 78.8582 -26.3024 55.2812 22.4293C41.6167 50.6245 46.1642 91.8699 52.3424 118.121L57.6721 136.041C57.6544 136.991 40.9317 156.467 39.1552 158.69C30.1221 170.171 25.1901 177.233 17.6375 189.448C12.2813 198.146 6.97375 210.604 3.89791 221.833C-13.7307 286.823 45.6339 352.98 108.264 336.461L112.286 335.493C112.591 337.46 113.948 341.446 114.562 343.28C120.78 361.642 133.176 396.078 119.825 412.217C113.36 419.977 105.277 424.14 94.8385 425.378C93.0133 425.585 88.5675 425.351 86.7556 424.953C83.7637 424.308 82.3362 423.097 80.1664 422.567C93.168 419.358 100.261 408.584 99.3948 395.207C98.701 384.154 92.2046 373.124 79.7244 369.562C52.7357 361.943 36.7422 398.256 50.8 419.646C59.9569 433.474 72.8215 437.301 87.5157 439.166C103.854 441.256 120.974 433.765 131.081 420.932C136.141 414.515 139.416 406.821 140.079 398.34Z" fill="#C70641"/>
</g>
</g>
</g>
</g>
<mask id="mask20_5_2" style="mask-type:luminance" maskUnits="userSpaceOnUse" x="128" y="375" width="214" height="200">
<path d="M128.973 375.607H341.666V574.724H128.973V375.607Z" fill="white"/>
</mask>
<g mask="url(#mask20_5_2)">
<mask id="mask21_5_2" style="mask-type:luminance" maskUnits="userSpaceOnUse" x="-68" y="-138" width="866" height="836">
<path d="M-67.8806 1.50941L665.743 -137.557L797.694 558.55L64.0712 697.617L-67.8806 1.50941Z" fill="white"/>
</mask>
<g mask="url(#mask21_5_2)">
<mask id="mask22_5_2" style="mask-type:luminance" maskUnits="userSpaceOnUse" x="-68" y="-138" width="866" height="836">
<path d="M-67.8806 1.51137L665.743 -137.555L797.694 558.552L64.0712 697.619L-67.8806 1.51137Z" fill="white"/>
</mask>
<g mask="url(#mask22_5_2)">
<mask id="mask23_5_2" style="mask-type:luminance" maskUnits="userSpaceOnUse" x="-68" y="-138" width="866" height="836">
<path d="M-67.8806 1.51247L665.743 -137.554L797.694 558.553L64.0712 697.62L-67.8806 1.51247Z" fill="white"/>
</mask>
<g mask="url(#mask23_5_2)">
<g filter="url(#filter0_d_5_2)">
<path fill-rule="evenodd" clip-rule="evenodd" d="M168.641 536.708C152.745 543.293 135.721 538.635 130.719 526.314C125.712 513.988 134.48 498.653 150.438 492.055C164.111 486.43 178.629 489.134 185.62 497.849L220.497 381.011C220.541 380.87 220.643 380.715 220.683 380.574L221.911 376.499L341.622 413.365L340.274 417.868L335.253 434.653L328.801 456.219L324.678 470.003L301.614 547.142C298.405 557.992 290.45 566.706 279.99 570.984C264.094 577.565 247.07 572.911 242.068 560.586C236.999 548.278 245.829 532.925 261.72 526.34C275.46 520.701 289.982 523.41 296.969 532.125L316.317 467.413L213.32 435.665L190.265 512.866C187.052 523.72 179.101 532.435 168.641 536.708ZM320.373 453.643L326.888 432.059L223.904 400.377L217.452 421.948L320.373 453.643Z" fill="#F47C29"/>
</g>
</g>
</g>
</g>
</g>
<mask id="mask24_5_2" style="mask-type:luminance" maskUnits="userSpaceOnUse" x="337" y="226" width="79" height="170">
<path d="M337.14 226.271H415.203V395.972H337.14V226.271Z" fill="white"/>
</mask>
<g mask="url(#mask24_5_2)">
<mask id="mask25_5_2" style="mask-type:luminance" maskUnits="userSpaceOnUse" x="-68" y="-138" width="866" height="836">
<path d="M-67.8806 1.50917L665.743 -137.558L797.694 558.55L64.0712 697.617L-67.8806 1.50917Z" fill="white"/>
</mask>
<g mask="url(#mask25_5_2)">
<mask id="mask26_5_2" style="mask-type:luminance" maskUnits="userSpaceOnUse" x="-68" y="-138" width="866" height="836">
<path d="M-67.8805 1.51112L665.743 -137.556L797.695 558.552L64.0713 697.619L-67.8805 1.51112Z" fill="white"/>
</mask>
<g mask="url(#mask26_5_2)">
<mask id="mask27_5_2" style="mask-type:luminance" maskUnits="userSpaceOnUse" x="-68" y="-138" width="866" height="836">
<path d="M-67.8805 1.51222L665.743 -137.555L797.694 558.553L64.0712 697.62L-67.8805 1.51222Z" fill="white"/>
</mask>
<g mask="url(#mask27_5_2)">
<g filter="url(#filter1_d_5_2)">
<path fill-rule="evenodd" clip-rule="evenodd" d="M392.475 379.402C385.192 392.708 371.156 398.873 361.08 393.238C350.933 387.546 348.626 372.22 355.918 358.98C362.145 347.49 373.458 341.369 382.929 343.481L337.326 229.238L342.603 227.156L347.552 239.557C350.505 243.512 355.083 247.967 361.911 251.255C377.316 258.644 421.121 274.73 413.705 327.811C413.665 327.952 413.497 328.12 413.356 328.08C413.166 328.115 413.064 327.934 413.025 327.735C413.723 305.033 403.267 280.135 385.824 273.267C372.641 268.088 364.063 269.308 359.966 270.554L392.236 351.418C395.917 360.628 397.225 370.687 392.475 379.402Z" fill="#3FB8AC"/>
</g>
</g>
</g>
</g>
</g>
<mask id="mask28_5_2" style="mask-type:luminance" maskUnits="userSpaceOnUse" x="450" y="299" width="97" height="155">
<path d="M450.274 299.808H546.439V453.67H450.274V299.808Z" fill="white"/>
</mask>
<g mask="url(#mask28_5_2)">
<mask id="mask29_5_2" style="mask-type:luminance" maskUnits="userSpaceOnUse" x="-68" y="-138" width="866" height="836">
<path d="M-67.8807 1.50923L665.743 -137.558L797.694 558.55L64.0711 697.617L-67.8807 1.50923Z" fill="white"/>
</mask>
<g mask="url(#mask29_5_2)">
<mask id="mask30_5_2" style="mask-type:luminance" maskUnits="userSpaceOnUse" x="-68" y="-138" width="866" height="836">
<path d="M-67.8806 1.51118L665.743 -137.556L797.694 558.552L64.0712 697.619L-67.8806 1.51118Z" fill="white"/>
</mask>
<g mask="url(#mask30_5_2)">
<mask id="mask31_5_2" style="mask-type:luminance" maskUnits="userSpaceOnUse" x="-68" y="-138" width="866" height="836">
<path d="M-67.8806 1.51228L665.743 -137.555L797.694 558.553L64.0711 697.62L-67.8806 1.51228Z" fill="white"/>
</mask>
<g mask="url(#mask31_5_2)">
<path fill-rule="evenodd" clip-rule="evenodd" d="M511.632 435.512C508.923 447.276 499.541 455.12 490.609 453.039C481.665 450.895 476.534 439.67 479.177 427.919C481.523 417.773 488.82 410.529 496.54 410.074L459.056 361.528L459.069 361.594L452.617 353.251C452.515 353.065 452.352 352.893 452.237 352.645L450.376 350.237L488.148 300.025L490.618 303.193L495.833 309.955L540.225 367.499C545.007 373.734 546.744 381.826 545.011 389.569C542.368 401.32 532.92 409.177 523.989 407.096C515.053 405.014 509.926 393.793 512.618 381.963C514.902 371.829 522.199 364.586 529.915 364.131L493.031 316.279L462.9 356.486L506.784 413.455C511.628 419.677 513.364 427.769 511.632 435.512Z" fill="#F05081"/>
</g>
</g>
</g>
</g>
<mask id="mask32_5_2" style="mask-type:luminance" maskUnits="userSpaceOnUse" x="529" y="214" width="37" height="87">
<path d="M529.468 214.957H565.671V300.939H529.468V214.957Z" fill="white"/>
</mask>
<g mask="url(#mask32_5_2)">
<mask id="mask33_5_2" style="mask-type:luminance" maskUnits="userSpaceOnUse" x="-68" y="-138" width="866" height="836">
<path d="M-67.8809 1.50917L665.742 -137.558L797.694 558.55L64.0708 697.617L-67.8809 1.50917Z" fill="white"/>
</mask>
<g mask="url(#mask33_5_2)">
<mask id="mask34_5_2" style="mask-type:luminance" maskUnits="userSpaceOnUse" x="-68" y="-138" width="866" height="836">
<path d="M-67.881 1.51112L665.742 -137.556L797.694 558.552L64.0708 697.619L-67.881 1.51112Z" fill="white"/>
</mask>
<g mask="url(#mask34_5_2)">
<mask id="mask35_5_2" style="mask-type:luminance" maskUnits="userSpaceOnUse" x="-68" y="-138" width="866" height="836">
<path d="M-67.881 1.51222L665.742 -137.555L797.694 558.553L64.0708 697.62L-67.881 1.51222Z" fill="white"/>
</mask>
<g mask="url(#mask35_5_2)">
<path fill-rule="evenodd" clip-rule="evenodd" d="M563.015 288.932C559.347 297.377 551.132 301.898 544.728 299.069C538.245 296.188 536.031 286.974 539.699 278.528C542.859 271.263 549.426 266.848 555.242 267.63L530.211 218.276C530.202 218.209 530.122 218.156 530.109 218.09L534.241 215.96C534.321 216.013 534.329 216.079 534.343 216.146L562.538 271.639C565.3 277.048 565.428 283.354 563.015 288.932Z" fill="#F47C29"/>
</g>
</g>
</g>
</g>
<mask id="mask36_5_2" style="mask-type:luminance" maskUnits="userSpaceOnUse" x="591" y="256" width="60" height="84">
<path d="M591.693 256.816H650.522V339.404H591.693V256.816Z" fill="white"/>
</mask>
<g mask="url(#mask36_5_2)">
<mask id="mask37_5_2" style="mask-type:luminance" maskUnits="userSpaceOnUse" x="-68" y="-138" width="866" height="836">
<path d="M-67.8806 1.51118L665.743 -137.556L797.694 558.552L64.0712 697.619L-67.8806 1.51118Z" fill="white"/>
</mask>
<g mask="url(#mask37_5_2)">
<mask id="mask38_5_2" style="mask-type:luminance" maskUnits="userSpaceOnUse" x="-68" y="-138" width="866" height="836">
<path d="M-67.8805 1.51228L665.743 -137.555L797.695 558.553L64.0713 697.62L-67.8805 1.51228Z" fill="white"/>
</mask>
<g mask="url(#mask38_5_2)">
<mask id="mask39_5_2" style="mask-type:luminance" maskUnits="userSpaceOnUse" x="-68" y="-138" width="866" height="836">
<path d="M-67.8804 1.515L665.743 -137.552L797.695 558.556L64.0714 697.623L-67.8804 1.515Z" fill="white"/>
</mask>
<g mask="url(#mask39_5_2)">
<path fill-rule="evenodd" clip-rule="evenodd" d="M610.851 334.372C605.242 339.273 597.601 339.781 593.894 335.362C590.137 331.022 591.649 323.522 597.248 318.555C602.052 314.344 608.411 313.407 612.437 316.014L611.593 290.099L611.31 282.268L611.204 277.844L611.138 277.858L610.899 271.299C610.939 271.158 610.912 271.025 610.939 270.818L610.917 268.94L648.216 257.759L648.287 260.238L648.428 265.532L648.614 271.092L648.896 278.923L649.948 310.861C650.076 315.753 648.03 320.455 644.38 323.708C638.772 328.609 631.122 329.051 627.427 324.698C623.671 320.354 625.169 312.792 630.777 307.891C635.581 303.68 641.94 302.743 645.971 305.35L645.109 280.045L615.323 288.994L616.423 321.529C616.556 326.483 614.501 331.119 610.851 334.372ZM644.884 272.201L644.689 267.658L614.93 276.735L615.102 281.15L644.884 272.201Z" fill="#3FB8AC"/>
</g>
</g>
</g>
</g>
<defs>
<filter id="filter0_d_5_2" x="128.311" y="376.499" width="220.31" height="208.472" filterUnits="userSpaceOnUse" color-interpolation-filters="sRGB">
<feFlood flood-opacity="0" result="BackgroundImageFix"/>
<feColorMatrix in="SourceAlpha" type="matrix" values="0 0 0 0 0 0 0 0 0 0 0 0 0 0 0 0 0 0 127 0" result="hardAlpha"/>
<feOffset dx="3" dy="7"/>
<feGaussianBlur stdDeviation="2"/>
<feComposite in2="hardAlpha" operator="out"/>
<feColorMatrix type="matrix" values="0 0 0 0 0.956863 0 0 0 0 0.486275 0 0 0 0 0.160784 0 0 0 0.54 0"/>
<feBlend mode="normal" in2="BackgroundImageFix" result="effect1_dropShadow_5_2"/>
<feBlend mode="normal" in="SourceGraphic" in2="effect1_dropShadow_5_2" result="shape"/>
</filter>
<filter id="filter1_d_5_2" x="337.326" y="227.156" width="87.2172" height="176.168" filterUnits="userSpaceOnUse" color-interpolation-filters="sRGB">
<feFlood flood-opacity="0" result="BackgroundImageFix"/>
<feColorMatrix in="SourceAlpha" type="matrix" values="0 0 0 0 0 0 0 0 0 0 0 0 0 0 0 0 0 0 127 0" result="hardAlpha"/>
<feOffset dx="6" dy="4"/>
<feGaussianBlur stdDeviation="2"/>
<feComposite in2="hardAlpha" operator="out"/>
<feColorMatrix type="matrix" values="0 0 0 0 0.247059 0 0 0 0 0.721569 0 0 0 0 0.67451 0 0 0 0.56 0"/>
<feBlend mode="normal" in2="BackgroundImageFix" result="effect1_dropShadow_5_2"/>
<feBlend mode="normal" in="SourceGraphic" in2="effect1_dropShadow_5_2" result="shape"/>
</filter>
</defs>
</svg>
