<svg width="201" height="37" viewBox="0 0 201 37" fill="none" xmlns="http://www.w3.org/2000/svg">
<path d="M6.19613 37.0038C5.11671 37.0038 4.13672 36.4928 3.25614 35.4707C2.38977 34.4486 1.69383 32.8814 1.16832 30.769C0.657018 28.6567 0.401367 25.9992 0.401367 22.7967L0.401367 0.617103L2.95788 0.617103L2.95788 22.8478C2.95788 24.7898 3.09281 26.391 3.36266 27.6516C3.63251 28.9122 4.00889 29.8662 4.49179 30.5135C4.98889 31.1268 5.5712 31.4334 6.23874 31.4334C6.92047 31.4334 7.50279 31.1268 7.98569 30.5135C8.48279 29.8662 8.85916 28.9122 9.11481 27.6516C9.38467 26.391 9.51959 24.7898 9.51959 22.8478L9.51959 0.617103L12.0761 0.617103L12.0761 22.7967C12.0761 25.9992 11.8134 28.6567 11.2878 30.769C10.7623 32.8814 10.0522 34.4486 9.15742 35.4707C8.26264 36.4928 7.27554 37.0038 6.19613 37.0038Z" fill="black"/>
<path d="M15.5866 36.3906L15.5866 0.617103L18.1432 0.617103L25.3227 26.4762L25.3227 0.617103L27.8792 0.617103L27.8792 36.3906L25.3227 36.3906L18.1432 10.5826L18.1432 36.3906L15.5866 36.3906Z" fill="black"/>
<path d="M31.5174 36.3906L31.5174 0.617103L34.0739 0.617103L34.0739 31.5867L40.7209 31.5867L40.7209 36.3906L31.5174 36.3906Z" fill="black"/>
<path d="M49.2927 37.0038C47.8582 37.0038 46.587 36.2373 45.4792 34.7041C44.3856 33.1369 43.5263 30.9735 42.9014 28.2138C42.2765 25.4201 41.964 22.1834 41.964 18.5038C41.964 14.8584 42.2765 11.6558 42.9014 8.89611C43.5263 6.10237 44.3856 3.92189 45.4792 2.35467C46.587 0.787455 47.8582 0.00384565 49.2927 0.00384567C50.7556 0.0038457 52.0409 0.787455 53.1487 2.35467C54.2566 3.92189 55.1158 6.10237 55.7266 8.89611C56.3373 11.6558 56.6426 14.8584 56.6426 18.5038C56.6426 22.1834 56.3373 25.4201 55.7266 28.2138C55.1158 30.9735 54.2566 33.1369 53.1487 34.7041C52.0409 36.2373 50.7556 37.0038 49.2927 37.0038ZM49.314 31.4845C50.2656 31.4845 51.0964 30.9735 51.8066 29.9514C52.5167 28.8952 53.0635 27.3961 53.447 25.4541C53.8305 23.5121 54.0222 21.1954 54.0222 18.5038C54.0222 15.8123 53.8305 13.4956 53.447 11.5536C53.0635 9.61158 52.5167 8.12954 51.8066 7.10744C51.0964 6.05127 50.2656 5.52318 49.314 5.52318C48.3624 5.52318 47.5315 6.05127 46.8214 7.10744C46.1112 8.12954 45.5573 9.61158 45.1596 11.5536C44.7762 13.4956 44.5844 15.8123 44.5844 18.5038C44.5844 21.1954 44.7762 23.5121 45.1596 25.4541C45.5573 27.3961 46.1112 28.8952 46.8214 29.9514C47.5315 30.9735 48.3624 31.4845 49.314 31.4845Z" fill="black"/>
<path d="M66.4053 37.0038C64.9282 37.0038 63.65 36.2373 62.5705 34.7041C61.5053 33.1369 60.6816 30.9735 60.0993 28.2138C59.5311 25.4201 59.2471 22.2004 59.2471 18.555C59.2471 14.8754 59.5311 11.6558 60.0993 8.89611C60.6816 6.10237 61.5053 3.92189 62.5705 2.35467C63.65 0.787455 64.9282 0.00384593 66.4053 0.00384596C68.1807 0.00384599 69.6294 1.06002 70.7514 3.17235C71.8734 5.25062 72.5835 8.19767 72.8818 12.0135L70.0696 12.0135C69.8708 10.0034 69.466 8.41913 68.8553 7.26075C68.2446 6.10237 67.4208 5.52318 66.384 5.52318C65.4466 5.52318 64.6371 6.05127 63.9553 7.10744C63.2878 8.12954 62.7694 9.62861 62.4001 11.6047C62.045 13.5467 61.8675 15.8634 61.8675 18.555C61.8675 21.2465 62.045 23.5632 62.4001 25.5052C62.7694 27.4131 63.2878 28.8952 63.9553 29.9514C64.6371 30.9735 65.4466 31.4845 66.384 31.4845C67.4208 31.4845 68.2446 30.9564 68.8553 29.9003C69.466 28.81 69.8708 27.3109 70.0696 25.403L72.8818 25.403C72.5977 29.0144 71.8876 31.8593 70.7514 33.9375C69.6294 35.9817 68.1807 37.0038 66.4053 37.0038Z" fill="black"/>
<path d="M76.0225 36.3906L76.0225 0.617104L78.579 0.617104L78.579 15.3864L84.2034 0.617104L87.3777 0.617104L81.8599 14.8243L87.5055 36.3906L84.3951 36.3906L80.049 19.5259L78.579 23.3588L78.579 36.3906L76.0225 36.3906Z" fill="black"/>
<path d="M90.1433 36.3906L90.1433 0.617104L92.6998 0.617104L92.6998 36.3906L90.1433 36.3906Z" fill="black"/>
<path d="M96.3373 36.3906L96.3373 0.617104L98.8938 0.617104L106.073 26.4762L106.073 0.617104L108.63 0.617104L108.63 36.3906L106.073 36.3906L98.8938 10.5826L98.8938 36.3906L96.3373 36.3906Z" fill="black"/>
<path d="M118.766 37.0038C117.36 37.0038 116.124 36.2373 115.059 34.7041C114.008 33.171 113.191 31.0416 112.609 28.316C112.027 25.5563 111.735 22.3367 111.735 18.6572C111.735 15.0117 112.034 11.7921 112.63 8.99832C113.227 6.17051 114.079 3.973 115.187 2.40578C116.309 0.804491 117.637 0.00384682 119.171 0.00384684C120.903 0.00384687 122.338 1.00891 123.474 3.01904C124.625 4.9951 125.37 7.75477 125.711 11.298L122.835 11.298C122.622 9.52641 122.203 8.14657 121.578 7.15854C120.953 6.17051 120.144 5.6765 119.149 5.6765C118.141 5.6765 117.275 6.20458 116.55 7.26075C115.84 8.28285 115.293 9.78193 114.91 11.758C114.541 13.7 114.356 16.0167 114.356 18.7083C114.356 21.3998 114.541 23.7166 114.91 25.6585C115.293 27.6005 115.833 29.0826 116.529 30.1047C117.225 31.0927 118.042 31.5867 118.979 31.5867C120.371 31.5867 121.422 30.6498 122.132 28.7759C122.842 26.9021 123.261 24.4661 123.389 21.4679L119.533 21.4679L119.533 16.8174L125.967 16.8174L125.967 36.3906L123.623 36.3906L123.41 31.4845C123.084 32.6429 122.707 33.648 122.281 34.4997C121.855 35.3174 121.351 35.9477 120.768 36.3906C120.2 36.7994 119.533 37.0038 118.766 37.0038Z" fill="black"/>
<path d="M139.529 36.3906L134.054 0.617105L136.802 0.617105L141.084 30.1047L145.43 0.617105L148.136 0.617105L142.639 36.3906L139.529 36.3906Z" fill="black"/>
<path d="M147.762 36.3906L153.216 0.617105L156.071 0.617105L161.525 36.3906L158.819 36.3906L154.622 7.7718L150.426 36.3906L147.762 36.3906ZM150.191 27.9583L150.873 23.1033L158.223 23.1033L158.905 27.9583L150.191 27.9583Z" fill="black"/>
<path d="M164.216 36.3906L164.216 0.617105L166.772 0.617105L166.772 31.5867L173.419 31.5867L173.419 36.3906L164.216 36.3906Z" fill="black"/>
<path d="M181.548 37.0038C180.468 37.0038 179.488 36.4928 178.608 35.4707C177.741 34.4486 177.045 32.8814 176.52 30.769C176.009 28.6567 175.753 25.9992 175.753 22.7967L175.753 0.617106L178.309 0.617106L178.309 22.8478C178.309 24.7898 178.444 26.391 178.714 27.6516C178.984 28.9122 179.36 29.8662 179.843 30.5135C180.34 31.1268 180.923 31.4334 181.59 31.4334C182.272 31.4334 182.854 31.1268 183.337 30.5135C183.834 29.8662 184.211 28.9122 184.466 27.6516C184.736 26.391 184.871 24.7898 184.871 22.8478L184.871 0.617106L187.428 0.617106L187.428 22.7967C187.428 25.9992 187.165 28.6567 186.639 30.769C186.114 32.8814 185.404 34.4486 184.509 35.4707C183.614 36.4928 182.627 37.0038 181.548 37.0038Z" fill="black"/>
<path d="M190.938 36.3906L190.938 0.617106L200.568 0.617106L200.568 5.57429L193.495 5.57429L193.495 15.8464L199.929 15.8464L199.929 20.7014L193.495 20.7014L193.495 31.4334L200.568 31.4334L200.568 36.3906L190.938 36.3906Z" fill="black"/>
</svg>
